<?xml version="1.0" encoding="UTF-8" standalone="no"?>
<!-- Uploaded to: SVG Repo, www.svgrepo.com, Generator: SVG Repo Mixer Tools -->

<svg
   fill="#000000"
   width="800px"
   height="800px"
   viewBox="0 0 24 24"
   id="linkedin"
   data-name="Flat Line"
   class="icon flat-line"
   version="1.1"
   sodipodi:docname="linkedin-svgrepo-com.svg"
   inkscape:version="1.3.2 (1:1.3.2+202311252150+091e20ef0f)"
   xmlns:inkscape="http://www.inkscape.org/namespaces/inkscape"
   xmlns:sodipodi="http://sodipodi.sourceforge.net/DTD/sodipodi-0.dtd"
   xmlns="http://www.w3.org/2000/svg"
   xmlns:svg="http://www.w3.org/2000/svg">
  <defs
     id="defs1" />
  <sodipodi:namedview
     id="namedview1"
     pagecolor="#ffffff"
     bordercolor="#000000"
     borderopacity="0.25"
     inkscape:showpageshadow="2"
     inkscape:pageopacity="0.0"
     inkscape:pagecheckerboard="0"
     inkscape:deskcolor="#d1d1d1"
     inkscape:zoom="1.02"
     inkscape:cx="400"
     inkscape:cy="400"
     inkscape:window-width="1920"
     inkscape:window-height="1016"
     inkscape:window-x="0"
     inkscape:window-y="0"
     inkscape:window-maximized="1"
     inkscape:current-layer="linkedin" />
  <rect
     id="secondary"
     x="3"
     y="3"
     width="18"
     height="18"
     rx="1"
     style="fill:#ffffff;stroke-width:2;fill-opacity:1" />
  <path
     id="primary"
     d="M16,17V14a2,2,0,0,0-2-2h0a2,2,0,0,0-2,2v3"
     style="fill:none;stroke:#feb324;stroke-linecap:round;stroke-linejoin:round;stroke-width:2;stroke-opacity:1" />
  <line
     id="primary-upstroke"
     x1="7.95"
     y1="7.5"
     x2="8.05"
     y2="7.5"
     style="fill:none;stroke:#feb324;stroke-linecap:round;stroke-linejoin:round;stroke-width:2.5;stroke-opacity:1" />
  <path
     id="primary-2"
     data-name="primary"
     d="M8,12v5m4-3V12m9,8V4a1,1,0,0,0-1-1H4A1,1,0,0,0,3,4V20a1,1,0,0,0,1,1H20A1,1,0,0,0,21,20Z"
     style="fill:none;stroke:#feb324;stroke-linecap:round;stroke-linejoin:round;stroke-width:2;stroke-opacity:1;fill-opacity:1" />
</svg>
