<?xml version="1.0" encoding="UTF-8" standalone="no"?>
<!-- Uploaded to: SVG Repo, www.svgrepo.com, Generator: SVG Repo Mixer Tools -->

<svg
   width="800px"
   height="800px"
   viewBox="0 -186.5 512 512"
   version="1.1"
   preserveAspectRatio="xMidYMid"
   id="svg4"
   sodipodi:docname="spring-svgrepo-com.svg"
   inkscape:version="1.3.2 (1:1.3.2+202311252150+091e20ef0f)"
   xmlns:inkscape="http://www.inkscape.org/namespaces/inkscape"
   xmlns:sodipodi="http://sodipodi.sourceforge.net/DTD/sodipodi-0.dtd"
   xmlns="http://www.w3.org/2000/svg"
   xmlns:svg="http://www.w3.org/2000/svg">
  <defs
     id="defs4" />
  <sodipodi:namedview
     id="namedview4"
     pagecolor="#ffffff"
     bordercolor="#000000"
     borderopacity="0.25"
     inkscape:showpageshadow="2"
     inkscape:pageopacity="0.0"
     inkscape:pagecheckerboard="0"
     inkscape:deskcolor="#d1d1d1"
     inkscape:zoom="1.02"
     inkscape:cx="400"
     inkscape:cy="400"
     inkscape:window-width="1920"
     inkscape:window-height="1016"
     inkscape:window-x="0"
     inkscape:window-y="0"
     inkscape:window-maximized="1"
     inkscape:current-layer="g4" />
  <g
     id="g4">
    <path
       d="m 266.03521,43.967686 c 10.37355,0 20.55851,8.037488 20.55851,22.541918 v 0.18477 c 0,14.412046 -10.09064,22.541919 -20.55851,22.541919 -7.35581,0 -11.97675,-3.603012 -15.08882,-7.667948 v 15.335894 c 0,2.718253 -2.1771,4.903301 -4.92989,4.986341 l -0.16259,0.003 c -2.73484,0 -4.99816,-2.217241 -4.99816,-4.896405 V 49.141241 c -0.0943,-2.679163 2.16901,-4.8964 4.90386,-4.988785 h 0.0943 c 2.77475,0 5.00522,2.132779 5.08998,4.829515 l 0.003,0.15927 v 2.956317 c 3.30068,-4.526861 7.92163,-8.129872 15.08881,-8.129872 z m 134.29045,-0.09238 c 7.05342,0 11.6408,3.489537 14.93064,7.915016 l 0.15818,0.214856 v -2.956317 l 0.003,-0.15927 c 0.0831,-2.642802 2.22686,-4.743978 4.92416,-4.826968 l 0.16581,-0.0025 h 0.0943 c 2.77474,0.09061 5.00521,2.22513 5.00099,4.921899 l -0.003,0.159271 v 30.302251 c 0,7.298409 -1.9804,12.749119 -5.6583,16.352135 -3.96081,3.97255 -10.18495,5.820251 -18.20088,5.820251 -5.94122,0 -11.78814,-1.2934 -17.16352,-3.880172 -1.6975,-0.554311 -2.82916,-2.217235 -2.82916,-3.972552 0.0943,-2.309623 1.98041,-4.064937 4.33803,-4.064937 0.66013,0 1.22598,0.09238 1.7918,0.369541 4.14943,2.309622 8.86468,3.418241 13.57993,3.418241 8.58177,0 13.48563,-4.064936 13.95715,-11.917654 -3.11206,3.972552 -7.733,7.575563 -15.08881,7.575563 -10.36318,0 -20.35665,-7.968088 -20.5555,-22.111444 l -0.003,-0.430475 v -0.184769 c 0,-14.504432 10.18495,-22.541918 20.55852,-22.541918 z m -40.26828,0.277155 c 9.99634,0 15.74895,6.559328 15.74895,16.629284 v 23.37338 c 0.0943,2.679162 -2.0747,4.804015 -4.80955,4.8964 h -0.18861 c -2.73485,0.09238 -4.99817,-2.124854 -5.09248,-4.804015 V 63.830442 c 0,-6.744098 -3.39499,-10.624265 -9.52481,-10.624265 -5.84692,0 -9.99634,4.064936 -9.99634,10.809035 v 20.232296 c 0,2.771546 -2.26332,4.988785 -5.09248,4.988785 -2.82915,0 -5.09247,-2.217239 -5.09247,-4.988785 l 0.0943,-35.013882 c -0.0943,-2.679163 2.16902,-4.896401 4.90387,-4.988785 h 0.0943 c 2.77474,0 5.00521,2.132779 5.08998,4.829515 l 0.003,0.15927 v 2.032468 c 3.01775,-4.619246 8.29884,-7.298408 13.86284,-7.113638 z M 219.7314,44.060076 c 4.90387,0.09238 9.61913,1.293389 13.95716,3.510627 1.50888,0.739079 2.45193,2.124853 2.45193,3.787781 0,2.217238 -1.88611,4.064937 -4.14943,4.064937 h -0.0943 c -0.66013,0 -1.32027,-0.184771 -1.98041,-0.461925 -3.20637,-1.755314 -6.69566,-2.771547 -10.37356,-2.956317 -3.96081,0 -6.22413,1.847698 -6.22413,4.249706 v 0.184769 c 0,3.233472 4.80955,4.526861 9.99633,6.18979 0.14147,0.04218 0.28328,0.08483 0.42537,0.128007 l 0.42701,0.131121 c 0.49893,0.154884 1.00022,0.316604 1.50033,0.486829 l 0.4283,0.148029 c 5.63321,1.977499 10.98754,5.098983 10.98754,11.762747 v 0.18477 c 0,9.146106 -7.26149,13.672966 -16.40909,13.672966 -6.03552,-0.09238 -11.97674,-1.847698 -16.97492,-5.173554 -1.22596,-0.73908 -1.9804,-2.032468 -1.88609,-3.418242 0,-2.217239 1.7918,-4.064937 4.05512,-4.064937 h 0.0943 c 0.75445,0 1.50888,0.18477 2.16902,0.55431 3.7722,2.586777 8.20454,3.972551 12.73118,4.157321 4.33804,0 6.88428,-1.847698 6.88428,-4.711631 v -0.184775 c 0,-3.418242 -4.71526,-4.526861 -9.90203,-6.097405 -0.54226,-0.153974 -1.09041,-0.313082 -1.63971,-0.480208 l -0.4121,-0.126894 c -5.90789,-1.841659 -11.81104,-4.693482 -11.81104,-12.142015 v -0.18477 c 0,-8.222257 6.97857,-13.211042 15.74894,-13.211042 z m 106.09324,0.18477 c 2.77474,0 5.00521,2.132779 5.08997,4.829515 l 0.003,0.15927 v 35.013882 c 0,2.771547 -2.26332,4.8964 -5.09247,4.8964 -2.82916,0 -4.99817,-2.217238 -4.99817,-4.8964 V 49.233626 c -0.0943,-2.679163 2.16901,-4.896401 4.90386,-4.988785 z m -9.05329,4.064936 v 0.73908 c 0,2.402007 -1.6975,4.434475 -4.05512,4.804015 -7.26149,1.201003 -12.16536,7.390793 -12.16536,15.982589 v 14.319657 c 0,2.771546 -2.26332,4.8964 -5.09247,4.8964 -2.68123,0 -4.90924,-2.042343 -4.99558,-4.647069 l -0.003,-0.157374 v -0.09195 l 0.0943,-35.013882 c -0.0943,-2.679163 2.169,-4.896401 4.90385,-4.988785 h 0.0943 c 2.77474,0 5.00522,2.132779 5.08997,4.829515 l 0.003,0.15927 v 2.402007 c 0.47153,-3.695396 6.69566,-7.390792 11.128,-7.390792 2.54624,-0.18477 4.80956,1.662928 4.99817,4.15732 z m -52.99947,4.342091 c -6.88427,0 -12.91979,5.635479 -12.91979,13.857737 v 0.184769 c 0,8.314642 6.03552,13.857738 12.91979,13.857738 6.88427,0 12.63688,-5.26594 12.63688,-13.857738 V 66.50961 c 0,-8.407027 -5.75261,-13.857737 -12.63688,-13.857737 z m 138.91141,-0.09238 c -6.8133,0 -12.51816,5.338904 -12.63505,13.598671 l -0.002,0.259066 v 0.184769 c 0,8.591797 5.6583,13.950123 12.63687,13.950123 6.90737,0 12.89084,-5.521057 12.92078,-13.696433 l -6.6e-4,-0.25369 V 66.41723 c 0,-8.222258 -6.03553,-13.857737 -12.9198,-13.857737 z m -71.67187,-20.50946 v 0.184769 0 c 0,2.771547 -2.26332,4.988785 -5.09247,4.988785 -2.82916,0 -5.09248,-2.217238 -5.09248,-4.988785 0,-2.718249 2.1771,-4.903302 4.92989,-4.986337 l 0.16259,-0.0024 c 2.73483,-0.09238 4.99816,2.124853 5.09247,4.804016 z"
       fill="#6DB33F"
       id="path1"
       style="fill:#ffffff;fill-opacity:1;stroke-width:0.655721" />
    <g
       id="g3"
       style="fill:#5b5b5b;fill-opacity:1;stroke:none;stroke-opacity:1"
       transform="matrix(0.66250042,0,0,0.64901099,86.4,21.5)">
      <path
         d="m 21.043239,19.387191 c 27.330667,-26.4765833 71.031264,-25.7648472 97.507851,1.708167 2.98929,-3.985723 5.55154,-8.398486 7.40205,-12.9535975 8.68318,26.4765835 13.95003,48.6827505 11.95717,65.9067635 -0.99643,14.519417 -6.69032,28.469446 -16.08524,39.572526 -24.48372,29.03884 -68.04197,32.73986 -97.080803,8.25614 v 0 L 24.186,121.381 24.08948,121.3143 c -0.06715,-0.0481 -0.133596,-0.0977 -0.199294,-0.14881 -0.262795,-0.20439 -0.501632,-0.42676 -0.716509,-0.66402 L 23.096,120.412 22.182017,119.59964 c -0.854083,-0.73208 -1.708167,-1.46415 -2.472609,-2.28586 l -0.374335,-0.41874 C -7.1415107,89.564372 -6.2874274,45.863774 21.043239,19.387191 Z m 10.249,92.668039 c -2.56225,-1.99286 -6.263278,-1.70816 -8.256139,0.85409 -1.737366,2.23375 -1.74373,5.33301 -0.01909,7.41142 l 0.07899,0.0913 1.09,0.969 0.106977,0.0731 c 2.466055,1.62394 5.778031,1.30724 7.696727,-0.9501 l 0.156619,-0.19261 c 1.992861,-2.56225 1.565819,-6.26328 -0.854084,-8.25614 z M 125.24141,15.259122 C 118.12404,30.20558 100.47299,41.593358 85.241837,45.152038 79.373645,46.54646 73.813744,46.897437 68.387903,47.172914 l -1.623905,0.08135 C 59.472958,47.618837 52.394489,48.022223 45.09992,50.845927 14.922309,62.376052 15.491698,98.247552 32.003975,106.36134 v 0 l 0.996431,0.56939 c 0,0 10.926843,-2.17259 22.205774,-5.10494 l 1.010713,-0.26459 c 0.168515,-0.0444 0.337039,-0.089 0.505535,-0.13375 l 1.010373,-0.27027 c 4.710932,-1.26956 9.34553,-2.653403 13.131966,-4.048406 C 90.508684,89.849066 112.14546,71.913316 119.26282,51.130622 115.5618,72.767399 96.914309,93.692441 78.266823,103.2297 c -9.964306,5.1245 -17.651056,6.26328 -34.020986,11.95717 -1.992862,0.71174 -3.558681,1.42347 -3.558681,1.42347 0.09382,-0.0129 0.187639,-0.0257 0.281411,-0.0384 l 0.561658,-0.0741 v 0 l 0.55817,-0.0706 c 3.611721,-0.44733 6.8549,-0.671 6.8549,-0.671 23.202597,-1.13878 59.643485,6.54797 76.582805,-16.085236 17.36636,-23.06025 7.68675,-60.355222 -0.28469,-84.411902 z"
         fill="#6DB33F"
         id="path2"
         style="fill:#feb324;fill-opacity:1;stroke:none;stroke-opacity:1" />
      <path
         d="m 31.292239,112.05523 c 2.419903,1.99286 2.846945,5.69389 0.854084,8.25614 -1.992862,2.56225 -5.693889,2.84695 -8.256139,0.85408 -2.56225,-1.99286 -2.846945,-5.69388 -0.854084,-8.25613 1.992861,-2.56225 5.693889,-2.84695 8.256139,-0.85409 z M 125.24141,15.259122 c 7.97144,24.05668 17.65105,61.351652 0.28469,84.411902 -16.93932,22.633206 -53.380208,14.946456 -76.582805,16.085236 0,0 -4.12807,0.28469 -8.256139,0.85408 0,0 1.565819,-0.71173 3.558681,-1.42347 16.36993,-5.69389 24.05668,-6.83267 34.020986,-11.95717 18.647486,-9.537259 37.294977,-30.462301 40.995997,-52.099078 -7.11736,20.782694 -28.754136,38.718444 -48.398053,45.978152 -3.515976,1.29536 -7.763276,2.581097 -12.12393,3.774646 l -1.008036,0.27376 c -12.113826,3.2646 -24.732395,5.77355 -24.732395,5.77355 l -0.996431,-0.56939 C 15.491698,98.247552 14.922309,62.376052 45.09992,50.845927 58.338211,45.721427 70.864767,48.568372 85.241837,45.152038 100.47299,41.593358 118.12404,30.20558 125.24141,15.259122 Z"
         fill="#FFFFFF"
         id="path3"
         style="fill:#ffffff;fill-opacity:1;stroke:none;stroke-opacity:1" />
    </g>
    <ellipse
       style="fill:none;fill-opacity:1;stroke:#424242;stroke-width:48;stroke-dasharray:none;stroke-opacity:1"
       id="path4"
       cx="255.99994"
       cy="-69.500061"
       transform="scale(1,-1)"
       rx="204.16551"
       ry="204.16556" />
    <path
       style="fill:none;fill-opacity:1;stroke:#feb324;stroke-width:48;stroke-dasharray:none"
       id="ellipse4"
       transform="scale(1,-1)"
       sodipodi:type="arc"
       sodipodi:cx="255.99994"
       sodipodi:cy="-69.500061"
       sodipodi:rx="204.16551"
       sodipodi:ry="204.16556"
       sodipodi:start="1.5525678"
       sodipodi:end="0.53057525"
       sodipodi:open="true"
       sodipodi:arc-type="arc"
       d="M 259.72137,134.63158 A 204.16551,204.16556 0 0 1 59.435471,-14.309777 204.16551,204.16556 0 0 1 152.92405,-245.73551 204.16551,204.16556 0 0 1 400.4642,-213.7694 204.16551,204.16556 0 0 1 432.09598,33.813752" />
  </g>
</svg>
