<?xml version="1.0" encoding="UTF-8" standalone="no"?>
<!-- Uploaded to: SVG Repo, www.svgrepo.com, Generator: SVG Repo Mixer Tools -->

<svg
   fill="#000000"
   width="800px"
   height="800px"
   viewBox="0 0 24 24"
   id="game-consol"
   data-name="Line Color"
   class="icon line-color"
   version="1.1"
   sodipodi:docname="game-consol-svgrepo-com.svg"
   inkscape:version="1.3.2 (1:1.3.2+202311252150+091e20ef0f)"
   xmlns:inkscape="http://www.inkscape.org/namespaces/inkscape"
   xmlns:sodipodi="http://sodipodi.sourceforge.net/DTD/sodipodi-0.dtd"
   xmlns="http://www.w3.org/2000/svg"
   xmlns:svg="http://www.w3.org/2000/svg">
  <defs
     id="defs1" />
  <sodipodi:namedview
     id="namedview1"
     pagecolor="#ffffff"
     bordercolor="#000000"
     borderopacity="0.25"
     inkscape:showpageshadow="2"
     inkscape:pageopacity="0.0"
     inkscape:pagecheckerboard="0"
     inkscape:deskcolor="#d1d1d1"
     inkscape:zoom="1.02"
     inkscape:cx="399.5098"
     inkscape:cy="400"
     inkscape:window-width="1920"
     inkscape:window-height="1016"
     inkscape:window-x="0"
     inkscape:window-y="0"
     inkscape:window-maximized="1"
     inkscape:current-layer="game-consol" />
  <polygon
     id="secondary"
     points="15 5 9 5 9.5 7 14.5 7 15 5"
     style="fill:none;stroke:#feb324;stroke-linecap:round;stroke-linejoin:round;stroke-width:2;stroke-opacity:1" />
  <path
     id="primary"
     d="M16.43,5a4,4,0,0,1,4,3.72l.57,8A2.12,2.12,0,0,1,18.76,19a2.24,2.24,0,0,1-2-1.82L16,13.79a1,1,0,0,0-1-.79H8.94a1,1,0,0,0-1,.79l-.73,3.39a2.24,2.24,0,0,1-2,1.82A2.12,2.12,0,0,1,3,16.72l.57-8A4,4,0,0,1,7.57,5Z"
     style="fill:none;stroke:#ffffff;stroke-linecap:round;stroke-linejoin:round;stroke-width:2;stroke-opacity:1" />
</svg>
