<?xml version="1.0" encoding="UTF-8" standalone="no"?>
<!-- Uploaded to: SVG Repo, www.svgrepo.com, Generator: SVG Repo Mixer Tools -->

<svg
   width="800px"
   height="800px"
   viewBox="0 0 32 32"
   fill="none"
   version="1.1"
   id="svg8"
   sodipodi:docname="java-svgrepo-com.svg"
   inkscape:version="1.3.2 (1:1.3.2+202311252150+091e20ef0f)"
   xmlns:inkscape="http://www.inkscape.org/namespaces/inkscape"
   xmlns:sodipodi="http://sodipodi.sourceforge.net/DTD/sodipodi-0.dtd"
   xmlns="http://www.w3.org/2000/svg"
   xmlns:svg="http://www.w3.org/2000/svg">
  <defs
     id="defs8" />
  <sodipodi:namedview
     id="namedview8"
     pagecolor="#ffffff"
     bordercolor="#000000"
     borderopacity="0.25"
     inkscape:showpageshadow="2"
     inkscape:pageopacity="0.0"
     inkscape:pagecheckerboard="0"
     inkscape:deskcolor="#d1d1d1"
     inkscape:zoom="1.02"
     inkscape:cx="400"
     inkscape:cy="400"
     inkscape:window-width="1920"
     inkscape:window-height="1016"
     inkscape:window-x="0"
     inkscape:window-y="0"
     inkscape:window-maximized="1"
     inkscape:current-layer="svg8" />
  <path
     d="m 15.912425,12.394328 c 4.61167,-2.5086345 2.24483,-4.1400388 2.24483,-4.1400388 0.35224,2.5934068 -3.81052,3.2057588 -4.926391,4.9878908 -0.76139,1.216072 0.521431,2.280827 2.680021,3.622857 -0.19082,-0.297237 -0.48517,-0.586037 -0.78309,-0.878418 -1.01633,-0.997265 -2.075011,-2.036172 0.78463,-3.592291 z"
     fill="#E76F00"
     id="path1"
     style="fill:#feb324;fill-opacity:1;stroke-width:0.585955" />
  <path
     d="m 16.648685,17.415171 c 0,0 1.3874,-0.784343 0.28868,-1.655993 -3.724561,-2.957135 4.07358,-4.29913 4.07358,-4.29913 -4.76112,1.607174 -4.05034,2.561128 -2.85362,3.720058 1.28128,1.242705 -1.50864,2.235065 -1.50864,2.235065 z"
     fill="#E76F00"
     id="path2"
     style="fill:#feb324;fill-opacity:1;stroke-width:0.585955" />
  <path
     d="m 19.478667,21.781997 c 6.1053,-3.1198 3.2825,-6.1178 1.3122,-5.7139 -0.483,0.0988 -0.6983,0.1845 -0.6983,0.1845 0,0 0.1793,-0.2762 0.5217,-0.3958 3.8979,-1.3475 6.8956,3.9745 -1.2583,6.0824 0,10e-5 0.0945,-0.083 0.1227,-0.1572 z"
     fill="#5382A1"
     id="path3"
     style="fill:#ffffff;fill-opacity:1" />
  <path
     d="m 11.840734,17.817323 c -2.6739158,-0.246029 1.46615,-0.923592 1.46615,-0.923592 0,0 -1.60776,-0.0747 -3.5851058,0.583879 -2.3381045,0.77934 5.7835268,1.133768 9.9876568,0.37189 0.43708,-0.205663 1.04118,-0.383907 1.04118,-0.383907 0,0 -1.72039,0.211696 -3.43371,0.311314 -2.09643,0.121004 -4.347141,0.144597 -5.476171,0.04042 z"
     fill="#5382A1"
     id="path4"
     style="fill:#ffffff;fill-opacity:1;stroke-width:0.585955" />
  <path
     d="m 12.858114,19.278444 c -1.491112,-0.10624 -0.51478,-0.604234 -0.51478,-0.604234 -3.8584133,0.882391 2.146761,1.88304 7.538231,0.796702 -0.57309,-0.139201 -0.93751,-0.393814 -0.93751,-0.393814 -2.63501,0.349621 -4.15772,0.338438 -6.085941,0.201346 z"
     fill="#5382A1"
     id="path5"
     style="fill:#ffffff;fill-opacity:1;stroke-width:0.585955" />
  <path
     d="m 13.507785,20.859441 c -1.489951,-0.118012 -0.619501,-0.4668 -0.619501,-0.4668 -3.5024918,0.674326 2.130381,2.067465 6.589661,0.750597 -0.73038,-0.195705 -1.25335,-0.421625 -1.25335,-0.421625 -1.98919,0.259371 -2.91179,0.279726 -4.71681,0.137828 z"
     fill="#5382A1"
     id="path6"
     style="fill:#ffffff;fill-opacity:1;stroke-width:0.585955" />
  <path
     d="m 22.834725,21.663697 c 0,0 0.64414,0.365709 -0.70945,0.648624 -2.57397,0.537283 -10.71299,0.699537 -12.9739828,0.02143 -0.8127695,-0.243626 0.711403,-0.581721 1.1908468,-0.652695 0.500017,-0.0747 0.785757,-0.06077 0.785757,-0.06077 -0.903882,-0.438744 -5.842319,0.861496 -2.5084843,1.233876 9.0918733,1.015952 16.5736133,-0.457529 14.2153133,-1.190468 z"
     fill="#5382A1"
     id="path7"
     style="fill:#ffffff;fill-opacity:1;stroke-width:0.585955" />
  <path
     d="m 23.754017,21.949977 c -0.14917,1.90876 -6.44861,2.31028 -10.55082,2.05205 -2.676156,-0.16877 -3.2124964,-0.59052 -3.2203434,-0.59668 2.5612934,0.41524 6.8795934,0.49084 10.3809234,-0.15715 3.10345,-0.57463 3.39024,-1.29822 3.39024,-1.29822 z"
     fill="#5382A1"
     id="path8"
     style="fill:#ffffff;fill-opacity:1;stroke-width:0.7" />
  <ellipse
     style="display:inline;fill:none;stroke:#424242;stroke-width:2.74286"
     id="path9"
     cx="15.999999"
     cy="15.999996"
     rx="14.62857"
     ry="14.628567" />
  <path
     style="display:inline;fill:none;stroke:#feb324;stroke-width:2.74286;stroke-opacity:1"
     id="ellipse9"
     sodipodi:type="arc"
     sodipodi:cx="15.999999"
     sodipodi:cy="15.999996"
     sodipodi:rx="14.62857"
     sodipodi:ry="14.628567"
     sodipodi:start="5.7155725"
     sodipodi:end="4.7168312"
     sodipodi:open="true"
     sodipodi:arc-type="arc"
     d="M 28.334616,8.1353754 A 14.62857,14.628567 0 0 1 26.668613,26.008776 14.62857,14.628567 0 0 1 8.9377915,28.810937 14.62857,14.628567 0 0 1 1.8412552,12.322359 14.62857,14.628567 0 0 1 16.064982,1.3715738" />
</svg>
