<?xml version="1.0" encoding="UTF-8" standalone="no"?>
<!-- Uploaded to: SVG Repo, www.svgrepo.com, Generator: SVG Repo Mixer Tools -->

<svg
   fill="#000000"
   width="800px"
   height="800px"
   viewBox="0 0 24 24"
   id="camera-left"
   data-name="Line Color"
   class="icon line-color"
   version="1.1"
   sodipodi:docname="camera-left-svgrepo-com.svg"
   inkscape:version="1.3.2 (1:1.3.2+202311252150+091e20ef0f)"
   xmlns:inkscape="http://www.inkscape.org/namespaces/inkscape"
   xmlns:sodipodi="http://sodipodi.sourceforge.net/DTD/sodipodi-0.dtd"
   xmlns="http://www.w3.org/2000/svg"
   xmlns:svg="http://www.w3.org/2000/svg">
  <defs
     id="defs1" />
  <sodipodi:namedview
     id="namedview1"
     pagecolor="#ffffff"
     bordercolor="#000000"
     borderopacity="0.25"
     inkscape:showpageshadow="2"
     inkscape:pageopacity="0.0"
     inkscape:pagecheckerboard="0"
     inkscape:deskcolor="#d1d1d1"
     inkscape:zoom="1.02"
     inkscape:cx="399.5098"
     inkscape:cy="400"
     inkscape:window-width="1920"
     inkscape:window-height="1016"
     inkscape:window-x="0"
     inkscape:window-y="0"
     inkscape:window-maximized="1"
     inkscape:current-layer="camera-left" />
  <path
     id="secondary"
     d="M6.5,5h3L10,7H6ZM10,13a2,2,0,1,0,2-2A2,2,0,0,0,10,13Z"
     style="fill:none;stroke:#feb324;stroke-linecap:round;stroke-linejoin:round;stroke-width:2;stroke-opacity:1" />
  <path
     id="primary"
     d="M4,7A1,1,0,0,0,3,8V18a1,1,0,0,0,1,1H20a1,1,0,0,0,1-1V6a1,1,0,0,0-1-1H14.62a1,1,0,0,0-.9.55L13,7Z"
     style="fill:none;stroke:#ffffff;stroke-linecap:round;stroke-linejoin:round;stroke-width:2;stroke-opacity:1" />
</svg>
