<?xml version="1.0" encoding="UTF-8" standalone="no"?>
<!-- Uploaded to: SVG Repo, www.svgrepo.com, Generator: SVG Repo Mixer Tools -->

<svg
   width="800px"
   height="800px"
   viewBox="0 0 32 32"
   version="1.1"
   id="svg1"
   sodipodi:docname="dotnet-svgrepo-com.svg"
   inkscape:version="1.3.2 (1:1.3.2+202311252150+091e20ef0f)"
   xmlns:inkscape="http://www.inkscape.org/namespaces/inkscape"
   xmlns:sodipodi="http://sodipodi.sourceforge.net/DTD/sodipodi-0.dtd"
   xmlns="http://www.w3.org/2000/svg"
   xmlns:svg="http://www.w3.org/2000/svg">
  <defs
     id="defs1" />
  <sodipodi:namedview
     id="namedview1"
     pagecolor="#ffffff"
     bordercolor="#000000"
     borderopacity="0.25"
     inkscape:showpageshadow="2"
     inkscape:pageopacity="0.0"
     inkscape:pagecheckerboard="0"
     inkscape:deskcolor="#d1d1d1"
     inkscape:zoom="1.02"
     inkscape:cx="400"
     inkscape:cy="404.90196"
     inkscape:window-width="1920"
     inkscape:window-height="1016"
     inkscape:window-x="0"
     inkscape:window-y="0"
     inkscape:window-maximized="1"
     inkscape:current-layer="svg1" />
  <path
     fill="#444444"
     d="m 9.7756896,11.237383 c 0.03218,-0.01484 0.065153,-0.0289 0.098118,-0.04138 -0.03218,0.01249 -0.065144,0.02732 -0.098118,0.04138 z M 5.00083,19.996125 h 0.098904 c 0.2920018,0 0.3744217,0 0.7103807,0 h 0.2645291 c 0.020406,0 0.040813,0 0.061229,0 0.022765,0 0.047096,0 0.071427,0 0,0 0.00396,0 0.00474,0 0.010208,0 0.020406,0 0.029831,0 0.00396,0 0.00396,0 0.00706,0 0.00396,0 0.0086,0.0047 0.01334,0.004 1.8666109,-0.09525 2.7316272,-1.055609 3.1664897,-2.439143 0.3383147,-1.073567 0.6154025,-1.976924 0.8587365,-2.735838 0,0 0,7.81e-4 0,7.81e-4 0.0032,-0.0094 0.0055,-0.01796 0.0086,-0.02732 0.58636,-0.818254 1.192341,-1.524855 1.738667,-2.097945 v 0 c 0,0 0.01256,0 0.01256,0 0.835973,2.542986 1.158588,7.080073 3.603712,7.080073 0.0989,0 0.201732,0.0024 0.301421,-0.0078 -0.09969,0.01015 -0.196238,0.02342 -0.295142,0.02342 h 1.941969 c -0.137367,0 -0.267669,-0.0203 -0.393261,-0.04607 -0.07928,-0.01639 -0.156205,-0.0406 -0.23156,-0.06636 0.07536,0.02499 0.152279,0.04451 0.232345,0.06012 0.125593,0.02576 0.255893,0.03748 0.392476,0.03748 0.360292,0 0.660928,-0.02732 0.923103,-0.112431 -0.262175,0.0851 -0.562811,0.126485 -0.923103,0.126485 h 1.899582 c 0,0 0,0 0,0 0.01648,0 0.03297,0 0.04866,0 0,0 0,0 0,0 0,0 7.85e-4,0 0.0015,0 l 7.85e-4,-0.004 0.716661,-0.0071 c -0.09184,0 -0.1774,-0.0164 -0.259819,-0.04372 7.84e-4,-0.0016 0.0023,-0.0024 0.0032,-0.004 0.08085,0.0242 0.164839,0.02889 0.25511,0.02889 1.886238,0 3.788174,-3.369047 6.935044,-8.965647 h -1.235502 l 7.85e-4,0.04997 h -0.229991 c -1.160159,2.048756 -1.971013,3.799254 -2.658631,5.198405 0.688403,-1.400713 1.498472,-3.149649 2.657846,-5.198405 h -1.696245 c -0.03218,0 -0.06437,0 -0.09655,0 -0.03061,0 -0.06123,0 -0.09105,0 h -0.004 c -0.0628,0 -0.123239,-0.0086 -0.183679,-0.0047 0,7.81e-4 -7.85e-4,-0.0055 -7.85e-4,-0.004 -1.821873,0.109309 -2.674329,1.029063 -3.102913,2.39464 -0.750414,2.38605 -1.204901,3.930424 -1.642118,4.916544 0,0 0,-7.8e-4 0,0 0,0.0024 -0.0015,0.0024 -0.0015,0.0031 v -0.0024 c -0.200948,0.195194 -0.409746,0.373211 -0.613833,0.534831 -0.106753,0.08433 -0.213507,0.163963 -0.321044,0.238918 0.08948,0.106966 0.181324,0.206904 0.277872,0.298256 0.146001,0.14132 0.302207,0.259999 0.472541,0.351349 0,0 -7.85e-4,0 -7.85e-4,0 -0.170334,-0.09135 -0.32654,-0.210029 -0.473325,-0.351349 -0.09655,-0.09136 -0.187604,-0.19129 -0.277873,-0.298256 0,0 0,0 0,0 0.107538,-0.07495 0.213506,-0.155374 0.32026,-0.239698 -0.587929,-1.295307 -0.929383,-3.496314 -1.562839,-5.210117 0.633456,1.713023 0.975695,3.91481 1.562839,5.210117 0.204088,-0.161621 0.408174,-0.339639 0.613047,-0.534832 -0.849317,-2.531274 -1.153879,-7.133166 -3.615486,-7.133166 -0.173474,0 -0.348518,0.0164 -0.522778,0.04763 0.17426,-0.03202 0.349304,-0.0484 0.522778,-0.0484 l -0.967846,-0.01327 c 0.153852,0 0.299067,0.04294 0.437219,0.04294 0,0 0,0 0,0 -0.138152,0 -0.283367,-0.04294 -0.436433,-0.04294 -0.01334,0 -0.02669,-0.0031 -0.04004,-0.0024 0.01334,0 0.02669,-0.0047 0.04004,-0.0047 h -3.893387 c -0.02198,0 -0.04395,-0.0031 -0.06672,-0.0031 -2.1240787,0 -5.0511629,3.949943 -6.369881,8.997658 0,0 0.095768,0 0.2535391,0 0,0 0,0 0,0 0.1821093,0 0.7457036,0 0.7457036,0 z m 18.575873,-8.978139 c 0,0 0,0 0,0 -0.633455,0.198317 -1.099716,0.541858 -1.445881,0.99705 0.346165,-0.455192 0.811639,-0.798733 1.445881,-0.99705 z m -2.976534,8.483908 c -0.0063,0.0031 -0.01177,0.0063 -0.01806,0.0094 -0.0086,0.0047 -0.01806,0.0086 -0.02669,0.01328 -7.84e-4,0 -0.0015,7.8e-4 -0.0015,7.8e-4 0.01571,-0.0078 0.03061,-0.01561 0.04631,-0.02264 z m -0.25825,0.113993 c 0.004,-0.0031 0.0078,-0.0031 0.01256,-0.0047 -0.004,0.0024 -0.0078,0.0031 -0.01177,0.0047 -0.0086,0.004 -0.01726,0.0063 -0.02591,0.0094 0.0086,-0.0031 0.01648,-0.0063 0.02512,-0.0094 z m -0.03061,0.01249 c 0,0 0,0 0,0 0,0 -7.85e-4,0 -7.85e-4,0 z m -0.196238,0.06559 c 0.01491,-0.0047 0.02825,-0.0086 0.04239,-0.01249 0.0071,-0.0031 0.01413,-0.0055 0.02119,-0.0071 0.0086,-0.0031 0.01648,-0.0055 0.02355,-0.0086 0.0086,-0.0031 0.01726,-0.0047 0.02433,-0.0078 0.0071,-0.0031 0.01334,-0.0047 0.02041,-0.0078 0.01648,-0.0063 0.03297,-0.01093 0.05024,-0.01718 0.0023,0 0.0046,-7.81e-4 0.0063,-0.0024 -0.0015,7.81e-4 -0.004,0.0016 -0.0055,0.0024 -0.01648,0.0063 -0.03297,0.01093 -0.04945,0.01718 -0.0071,0.0031 -0.01413,0.0047 -0.02041,0.0071 -0.0071,0.0031 -0.01571,0.0055 -0.02433,0.0078 -0.0071,0.0031 -0.01571,0.0047 -0.02433,0.0086 -0.0071,0.0031 -0.01413,0.004 -0.02119,0.0071 -0.01492,0.004 -0.02826,0.0078 -0.04239,0.01249 -7.84e-4,0 -0.0023,7.8e-4 -0.0032,7.8e-4 7.85e-4,0 0.0015,-7.8e-4 0.0023,-7.8e-4 z m -10.2412589,-8.4925 v -0.0063 c 0,0 0.00474,0.0063 0.00551,0.0063 v 0 c -0.041606,0 -0.082419,0.02888 -0.1232378,0.04607 0.00628,-0.0031 0.01334,-0.0071 0.019623,-0.0094 -0.032973,0.01406 -0.065936,0.0289 -0.098904,0.04451 -0.017265,0.0086 -0.035322,0.0164 -0.052587,0.02576 z m 0.1004729,-0.04997 z m 0.281799,-0.08433 c -0.0055,0.0031 -0.0094,0.01484 -0.01413,0.01484 -0.03454,0.0086 -0.06908,0.01796 -0.103614,0.02732 -0.004,0 -0.0071,0.0031 -0.01177,0.004 -0.0094,0.0024 -0.01884,0.0055 -0.02905,0.0086 0.0102,-0.0031 0.01962,-0.0086 0.02905,-0.01015 0.0047,0 0.0086,-0.004 0.01177,-0.004 0.03454,-0.0094 0.06907,-0.01873 0.103614,-0.02732 0.0047,0 0.0086,-0.01406 0.01413,-0.01406 0.0094,-0.0031 0.01884,-0.01561 0.02905,-0.0164 -0.0102,7.81e-4 -0.01962,0.0164 -0.02905,0.01796 z m 0.04553,-0.0047 c -0.0047,0.0031 -0.01021,0.0063 -0.01492,0.0078 0.0047,-0.0031 0.0094,-0.0086 0.01492,-0.01015 0.0102,-0.0031 0.01962,-0.01093 0.03061,-0.01093 -0.01099,0 -0.02041,0.01171 -0.03061,0.01327 z m 0.379131,-0.01249 c -0.01884,-0.0031 -0.03689,-0.0016 -0.05495,-0.0016 -7.85e-4,0 -0.0015,0 -0.0015,0 0.01806,0 0.03612,-0.0024 0.05495,0 0.0023,0 0.004,-7.81e-4 0.0063,-7.81e-4 -0.0015,7.81e-4 -0.0023,0.0024 -0.0047,0.0024 z m 0.04866,-0.02421 c -0.04553,0 -0.09027,0.0094 -0.136581,0.01249 0.0063,0 0.01256,0.0078 0.01884,0.0094 -0.01177,-0.0016 -0.02355,-0.0086 -0.03532,-0.0094 0.0055,-7.82e-4 0.01099,-0.004 0.01648,-0.004 -0.0031,0 -0.0031,-0.0016 -0.0063,-0.0016 -0.004,-0.0031 -0.0094,-0.0047 -0.0094,-0.0047 v 0.004 c -0.05024,0.0031 -0.0471,0.004 -0.06907,0.0063 l -0.0032,-0.004 c -0.0063,0 -0.01099,0.0031 -0.01648,0.0031 -0.0086,0.0031 -0.01884,0.0031 -0.02826,0.004 -0.0055,0 -0.01099,0 -0.01648,0.0031 -0.01021,0.0031 -0.01962,0.0047 -0.02905,0.0063 -7.85e-4,0 -0.0015,7.81e-4 -0.0023,7.81e-4 7.84e-4,0 0.0015,0 0.0023,0 0.0102,0 0.01884,-0.0047 0.02905,-0.0071 0.0055,0 0.01099,-0.004 0.01648,-0.004 0.0094,0 0.01884,-0.0031 0.02826,-0.0047 0.0047,0 0.0094,0 0.01571,-0.0031 0.01884,-0.0024 0.03767,-0.004 0.05652,-0.0055 0.004,0 0.0071,7.8e-4 0.01099,7.8e-4 0.05338,-0.0047 0.105184,-0.0063 0.157776,-0.0063 z m 0.126377,0.05466 c -0.03532,-0.0094 -0.07144,-0.0164 -0.107537,-0.02264 -0.0032,0 -0.0063,-0.0016 -0.0094,-0.0024 0.0023,7.81e-4 0.0055,0.0016 0.0086,0.0016 0.03612,0.0071 0.07221,0.01406 0.107538,0.02342 7.85e-4,0 0.0023,7.8e-4 0.0032,7.8e-4 -7.86e-4,0 -7.86e-4,0 -0.0016,0 z m 0.768468,0.610566 v 0 c 0,0 0,7.82e-4 -7.85e-4,7.82e-4 -0.110677,-0.185825 -0.232345,-0.34198 -0.367357,-0.455973 0.0015,7.8e-4 0.004,0.0024 0.0055,0.0031 0.132657,0.114772 0.25197,0.268585 0.361863,0.45285 0,0 0,0 0,0 z m 0.172689,0.331049 z m 1.971013,-0.950203 c 0.141292,-0.02655 0.283367,-0.04372 0.423088,-0.04997 -0.140506,0.0071 -0.281796,0.02342 -0.423873,0.05075 z m -1.3823,1.32888 c -7.86e-4,-0.0024 -0.0023,-0.004 -0.0032,-0.0063 7.86e-4,0.0024 0.0023,0.004 0.0032,0.0063 z m 1.809314,-1.170383 c -0.222926,0.08276 -0.446637,0.188947 -0.670348,0.318556 0.223711,-0.129609 0.447421,-0.235794 0.670348,-0.318556 0.152281,-0.05621 0.303777,-0.10072 0.455273,-0.134294 -0.152281,0.03357 -0.303777,0.07808 -0.455273,0.134294 z m 0.573799,-0.159278 z m 1.698635,8.600243 c 0.09184,-0.0242 0.184464,-0.05309 0.276303,-0.0851 0,0 0,0 0,0 -0.09263,0.03202 -0.184464,0.06012 -0.276303,0.0851 z m 2.379972,-0.153812 c 0,0 0,0 0,0 -0.0055,0.0031 -0.01099,0.0055 -0.01648,0.0086 0.0055,-0.0031 0.01177,-0.0063 0.01727,-0.0094 z m 0.49138,0.25219 c -0.223711,-0.02655 -0.423875,-0.09213 -0.606768,-0.190509 0.182893,0.09838 0.383057,0.163962 0.606768,0.190509 0.03297,0.0031 0.06514,0.0063 0.0989,0.0086 -0.03375,-0.0024 -0.06672,-0.0055 -0.0989,-0.0086 z m -0.01571,-0.662878 7.85e-4,-0.004 c 0,0 0,-7.82e-4 7.85e-4,-7.82e-4 0.123238,0.208468 0.259819,0.380238 0.413669,0.498916 -0.153849,-0.116335 -0.291215,-0.284202 -0.414453,-0.494231 z m 0.350089,0.671467 c -0.0063,0.0031 -0.01177,0.0031 -0.01806,0.0031 -7.85e-4,0 -7.85e-4,0 -0.0015,0 0.0063,0 0.01256,0 0.01806,-0.0031 0.01177,0 0.02355,0 0.03611,-0.0031 7.86e-4,0 0.0015,0 0.0015,0 -0.01256,0.0031 -0.02433,0.0031 -0.03612,0.0031 z m 0.148355,-0.0164 c -0.01334,0.0024 -0.02747,0.0031 -0.0416,0.0063 -0.004,0 -0.0078,0.0031 -0.01177,0.0031 0,0 -0.0032,0 -0.0032,0 -0.01256,0.0016 -0.02591,0.004 -0.03846,0.004 -7.85e-4,0 -0.0015,0 -0.0015,0 0.01256,0 0.02591,-0.0031 0.03846,-0.004 h 0.0032 c 0.004,0 0.0078,-0.0031 0.01177,-0.0031 0.01413,-0.0031 0.02826,-0.0047 0.04161,-0.0063 0.0015,0 0.0023,0 0.0032,0 -7.85e-4,0 -7.85e-4,0 -0.0015,0 z"
     id="path1"
     style="fill:#feb324;fill-opacity:1;stroke-width:0.782861" />
  <path
     style="fill:none;fill-opacity:1;stroke:#424242;stroke-width:2.76485;stroke-dasharray:none;stroke-opacity:1"
     id="path2"
     sodipodi:type="arc"
     sodipodi:cx="16.000004"
     sodipodi:cy="16.000002"
     sodipodi:rx="14.617579"
     sodipodi:ry="14.617577"
     sodipodi:start="4.6573518"
     sodipodi:end="2.5333772"
     sodipodi:open="true"
     sodipodi:arc-type="arc"
     d="M 15.1959,1.4045587 A 14.617579,14.617577 0 0 1 30.200592,12.53346 14.617579,14.617577 0 0 1 22.011453,29.324267 14.617579,14.617577 0 0 1 4.0038092,24.352541" />
  <path
     style="fill:none;fill-opacity:1;stroke:#feb324;stroke-width:2.76485;stroke-dasharray:none;stroke-opacity:1"
     id="path3"
     sodipodi:type="arc"
     sodipodi:cx="16.000004"
     sodipodi:cy="16.000002"
     sodipodi:rx="14.617579"
     sodipodi:ry="14.617577"
     sodipodi:start="1.4486089"
     sodipodi:end="4.7283891"
     sodipodi:open="true"
     sodipodi:arc-type="arc"
     d="M 17.781647,30.508596 A 14.617579,14.617577 0 0 1 3.9333147,24.250373 14.617579,14.617577 0 0 1 3.126842,9.0750244 14.617579,14.617577 0 0 1 16.233877,1.3842963" />
</svg>
